<svg width="500" height="500" viewBox="0 0 500 500" fill="none" xmlns="http://www.w3.org/2000/svg">
<path fill-rule="evenodd" clip-rule="evenodd" d="M490.643 56.4904C496.715 50.2037 500.075 41.7836 499.999 33.0437C499.923 24.3038 496.417 15.9434 490.237 9.76312C484.057 3.58285 475.696 0.0772074 466.956 0.00126008C458.216 -0.0746872 449.796 3.28514 443.51 9.35707L250.41 202.457L57.3096 9.35707C51.0229 3.28514 42.6028 -0.0746872 33.8629 0.00126008C25.123 0.0772074 16.7626 3.58285 10.5823 9.76312C4.40205 15.9434 0.896412 24.3038 0.820465 33.0437C0.744517 41.7836 4.10434 50.2037 10.1763 56.4904L203.276 249.59L10.1763 442.69C6.99261 445.765 4.4532 449.443 2.70623 453.51C0.959262 457.577 0.0397191 461.951 0.00125857 466.377C-0.037202 470.803 0.806181 475.192 2.48221 479.289C4.15824 483.385 6.63334 487.107 9.7631 490.237C12.8929 493.367 16.6146 495.842 20.7111 497.518C24.8077 499.194 29.197 500.037 33.623 499.999C38.049 499.96 42.4229 499.041 46.4897 497.294C50.5565 495.547 54.2347 493.007 57.3096 489.824L250.41 296.724L443.51 489.824C449.796 495.896 458.216 499.255 466.956 499.18C475.696 499.104 484.057 495.598 490.237 489.418C496.417 483.237 499.923 474.877 499.999 466.137C500.075 457.397 496.715 448.977 490.643 442.69L297.543 249.59L490.643 56.4904Z" fill="white"/>
</svg>
